<svg width="24" height="24" viewBox="0 0 24 24" fill="none" xmlns="http://www.w3.org/2000/svg">
<path d="M6.827 6.175C6.64699 6.45991 6.40682 6.70199 6.12334 6.88424C5.83985 7.06649 5.51993 7.1845 5.186 7.23C4.806 7.28334 4.428 7.34167 4.052 7.405C2.999 7.58 2.25 8.507 2.25 9.574V18C2.25 18.5967 2.48705 19.169 2.90901 19.591C3.33097 20.0129 3.90326 20.25 4.5 20.25H19.5C20.0967 20.25 20.669 20.0129 21.091 19.591C21.5129 19.169 21.75 18.5967 21.75 18V9.574C21.75 8.507 21 7.58 19.948 7.405C19.5707 7.34215 19.1927 7.28382 18.814 7.23C18.4802 7.18436 18.1605 7.06628 17.8772 6.88404C17.5939 6.70179 17.3539 6.4598 17.174 6.175L16.352 4.859C16.1675 4.55899 15.9134 4.30789 15.6112 4.12702C15.309 3.94615 14.9676 3.84083 14.616 3.82C12.8732 3.72683 11.1268 3.72683 9.384 3.82C9.03241 3.84083 8.69104 3.94615 8.38883 4.12702C8.08662 4.30789 7.83249 4.55899 7.648 4.859L6.827 6.175Z" stroke="#A0A5AB" stroke-width="1.5" stroke-linecap="round" stroke-linejoin="round"/>
<path d="M16.5 12.75C16.5 13.9435 16.0259 15.0881 15.182 15.932C14.3381 16.7759 13.1935 17.25 12 17.25C10.8065 17.25 9.66193 16.7759 8.81802 15.932C7.97411 15.0881 7.5 13.9435 7.5 12.75C7.5 11.5565 7.97411 10.4119 8.81802 9.56802C9.66193 8.72411 10.8065 8.25 12 8.25C13.1935 8.25 14.3381 8.72411 15.182 9.56802C16.0259 10.4119 16.5 11.5565 16.5 12.75ZM18.75 10.5H18.758V10.508H18.75V10.5Z" stroke="#A0A5AB" stroke-width="1.5" stroke-linecap="round" stroke-linejoin="round"/>
</svg>
