<svg width="25" height="24" viewBox="0 0 25 24" fill="none" xmlns="http://www.w3.org/2000/svg">
<path d="M16.3333 9C16.3333 9.26522 16.228 9.51957 16.0405 9.70711C15.8529 9.89464 15.5986 10 15.3333 10C15.0681 10 14.8138 9.89464 14.6262 9.70711C14.4387 9.51957 14.3333 9.26522 14.3333 9C14.3333 8.73478 14.4387 8.48043 14.6262 8.29289C14.8138 8.10536 15.0681 8 15.3333 8C15.5986 8 15.8529 8.10536 16.0405 8.29289C16.228 8.48043 16.3333 8.73478 16.3333 9ZM10.3333 9C10.3333 9.26522 10.228 9.51957 10.0405 9.70711C9.85291 9.89464 9.59856 10 9.33334 10C9.06813 10 8.81377 9.89464 8.62624 9.70711C8.4387 9.51957 8.33334 9.26522 8.33334 9C8.33334 8.73478 8.4387 8.48043 8.62624 8.29289C8.81377 8.10536 9.06813 8 9.33334 8C9.59856 8 9.85291 8.10536 10.0405 8.29289C10.228 8.48043 10.3333 8.73478 10.3333 9Z" fill="#A0A5AB"/>
<path fill-rule="evenodd" clip-rule="evenodd" d="M12.3333 2.75C11.7366 2.75 11.1643 2.98705 10.7423 3.40901C10.3204 3.83097 10.0833 4.40326 10.0833 5V5.254C10.5007 5.25067 10.9523 5.24933 11.4383 5.25H13.2283C13.715 5.24933 14.1667 5.25067 14.5833 5.254V5C14.5833 4.40326 14.3463 3.83097 13.9243 3.40901C13.5024 2.98705 12.9301 2.75 12.3333 2.75ZM16.0833 5.307V5C16.0833 4.00544 15.6882 3.05161 14.985 2.34835C14.2817 1.64509 13.3279 1.25 12.3333 1.25C11.3388 1.25 10.3849 1.64509 9.68169 2.34835C8.97842 3.05161 8.58334 4.00544 8.58334 5V5.307C8.44867 5.31633 8.31834 5.328 8.19234 5.342C7.31434 5.437 6.57934 5.635 5.92734 6.082C5.70366 6.23658 5.49296 6.40916 5.29734 6.598C4.73134 7.15 4.39234 7.832 4.12734 8.674C3.87034 9.493 3.66234 10.533 3.40034 11.84L3.38134 11.935C3.00534 13.818 2.70834 15.302 2.62334 16.484C2.53534 17.692 2.65734 18.707 3.22934 19.588C3.42134 19.8827 3.64267 20.1527 3.89334 20.398C4.64534 21.132 5.61734 21.45 6.81834 21.602C7.99434 21.75 9.50834 21.75 11.4283 21.75H13.2383C15.1593 21.75 16.6723 21.75 17.8483 21.602C19.0493 21.45 20.0223 21.132 20.7733 20.398C21.0236 20.153 21.2462 19.8814 21.4373 19.588C22.0093 18.708 22.1313 17.692 22.0443 16.484C21.9583 15.302 21.6623 13.818 21.2843 11.935L21.2663 11.84C21.0053 10.533 20.7963 9.493 20.5393 8.674C20.2743 7.832 19.9353 7.15 19.3693 6.598C19.1737 6.40916 18.963 6.23658 18.7393 6.082C18.0873 5.635 17.3523 5.437 16.4743 5.342C16.3446 5.32802 16.2145 5.31635 16.0843 5.307M8.35334 6.833C7.60634 6.913 7.14534 7.066 6.77534 7.319C6.62194 7.42463 6.47776 7.54305 6.34434 7.673C6.02334 7.986 5.78434 8.408 5.55834 9.124C5.32834 9.857 5.13434 10.817 4.86334 12.176C4.47334 14.124 4.19634 15.516 4.11934 16.592C4.04234 17.654 4.17134 18.285 4.48734 18.771C4.618 18.9723 4.76934 19.157 4.94134 19.325C5.35634 19.73 5.94934 19.98 7.00634 20.114C8.07634 20.249 9.49634 20.25 11.4823 20.25H13.1853C15.1713 20.25 16.5893 20.249 17.6603 20.114C18.7173 19.98 19.3103 19.73 19.7253 19.325C19.8963 19.1574 20.0486 18.9716 20.1793 18.771C20.4953 18.285 20.6243 17.654 20.5483 16.591C20.4703 15.515 20.1933 14.124 19.8043 12.176C19.5323 10.817 19.3393 9.856 19.1083 9.124C18.8833 8.408 18.6433 7.986 18.3223 7.673C18.1903 7.54192 18.0463 7.42341 17.8923 7.319C17.5223 7.066 17.0603 6.914 16.3133 6.833C15.5503 6.751 14.5703 6.75 13.1843 6.75H11.4833C10.0973 6.75 9.11734 6.751 8.35334 6.833Z" fill="#A0A5AB"/>
</svg>
