<svg width="25" height="24" viewBox="0 0 25 24" fill="none" xmlns="http://www.w3.org/2000/svg">
<path d="M18.8367 2H16.9367C14.7567 2 13.6067 3.15 13.6067 5.33V7.23C13.6067 9.41 14.7567 10.56 16.9367 10.56H18.8367C21.0167 10.56 22.1667 9.41 22.1667 7.23V5.33C22.1667 3.15 21.0167 2 18.8367 2Z" fill="white"/>
<path d="M7.40667 13.43H5.50667C3.31667 13.43 2.16667 14.58 2.16667 16.76V18.66C2.16667 20.85 3.31667 22 5.49667 22H7.39667C9.57667 22 10.7267 20.85 10.7267 18.67V16.77C10.7367 14.58 9.58667 13.43 7.40667 13.43Z" fill="white"/>
<path d="M6.45667 10.58C8.82597 10.58 10.7467 8.6593 10.7467 6.29C10.7467 3.9207 8.82597 2 6.45667 2C4.08737 2 2.16667 3.9207 2.16667 6.29C2.16667 8.6593 4.08737 10.58 6.45667 10.58Z" fill="white"/>
<path d="M17.8767 22C20.246 22 22.1667 20.0793 22.1667 17.71C22.1667 15.3407 20.246 13.42 17.8767 13.42C15.5074 13.42 13.5867 15.3407 13.5867 17.71C13.5867 20.0793 15.5074 22 17.8767 22Z" fill="white"/>
</svg>
